<svg width="213" height="190" viewBox="0 0 213 190" fill="none" xmlns="http://www.w3.org/2000/svg">
<path d="M0 55C0 24.6243 24.6243 0 55 0H158C188.376 0 213 24.6243 213 55V135C213 165.376 188.376 190 158 190H55C24.6243 190 0 165.376 0 135V55Z" fill="#731913"/>
<path d="M25.7911 112.7C22.1044 112.7 19.2811 111.65 17.3211 109.55C15.4078 107.45 14.4511 104.487 14.4511 100.66V74.34C14.4511 70.5133 15.4078 67.55 17.3211 65.45C19.2811 63.35 22.1044 62.3 25.7911 62.3C29.4778 62.3 32.2778 63.35 34.1911 65.45C36.1511 67.55 37.1311 70.5133 37.1311 74.34V79.52H29.8511V73.85C29.8511 70.8167 28.5678 69.3 26.0011 69.3C23.4344 69.3 22.1511 70.8167 22.1511 73.85V101.22C22.1511 104.207 23.4344 105.7 26.0011 105.7C28.5678 105.7 29.8511 104.207 29.8511 101.22V93.73H37.1311V100.66C37.1311 104.487 36.1511 107.45 34.1911 109.55C32.2778 111.65 29.4778 112.7 25.7911 112.7ZM88.2989 63H98.7289L106.709 112H99.0089L97.6089 102.27V102.41H88.8589L87.4589 112H80.3189L88.2989 63ZM96.6989 95.76L93.2689 71.54H93.1289L89.7689 95.76H96.6989ZM118.845 63H126.545V112H118.845V63ZM140.711 63H152.121C156.088 63 158.981 63.9333 160.801 65.8C162.621 67.62 163.531 70.4433 163.531 74.27V77.28C163.531 82.3667 161.851 85.5867 158.491 86.94V87.08C160.358 87.64 161.665 88.7833 162.411 90.51C163.205 92.2367 163.601 94.5467 163.601 97.44V106.05C163.601 107.45 163.648 108.593 163.741 109.48C163.835 110.32 164.068 111.16 164.441 112H156.601C156.321 111.207 156.135 110.46 156.041 109.76C155.948 109.06 155.901 107.8 155.901 105.98V97.02C155.901 94.78 155.528 93.2167 154.781 92.33C154.081 91.4433 152.845 91 151.071 91H148.411V112H140.711V63ZM151.211 84C152.751 84 153.895 83.6033 154.641 82.81C155.435 82.0167 155.831 80.6867 155.831 78.82V75.04C155.831 73.2667 155.505 71.9833 154.851 71.19C154.245 70.3967 153.265 70 151.911 70H148.411V84H151.211ZM183.32 91.14L174.01 63H182.2L187.45 80.99H187.59L192.84 63H200.33L191.02 91.14V112H183.32V91.14Z" fill="black"/>
<path d="M49 62V84.6023H75M49 113V93.5222H72.1739V113" stroke="black" stroke-width="5"/>
</svg>
