<svg width="315" height="315" viewBox="0 0 315 315" fill="none" xmlns="http://www.w3.org/2000/svg">
<path d="M315 157.5C315 244.485 244.485 315 157.5 315C70.5152 315 0 244.485 0 157.5C0 70.5152 70.5152 0 157.5 0C244.485 0 315 70.5152 315 157.5Z" fill="#1C0303"/>
<path d="M83 124V148.818H120M83 180V158.613H115.978V180" stroke="#8D2C2C" stroke-width="6"/>
<path d="M54.055 180.8C49.8417 180.8 46.615 179.6 44.375 177.2C42.1883 174.8 41.095 171.413 41.095 167.04V136.96C41.095 132.587 42.1883 129.2 44.375 126.8C46.615 124.4 49.8417 123.2 54.055 123.2C58.2683 123.2 61.4683 124.4 63.655 126.8C65.895 129.2 67.015 132.587 67.015 136.96V142.88H58.695V136.4C58.695 132.933 57.2283 131.2 54.295 131.2C51.3617 131.2 49.895 132.933 49.895 136.4V167.68C49.895 171.093 51.3617 172.8 54.295 172.8C57.2283 172.8 58.695 171.093 58.695 167.68V159.12H67.015V167.04C67.015 171.413 65.895 174.8 63.655 177.2C61.4683 179.6 58.2683 180.8 54.055 180.8ZM140.705 124H152.625L161.745 180H152.945L151.345 168.88V169.04H141.345L139.745 180H131.585L140.705 124ZM150.305 161.44L146.385 133.76H146.225L142.385 161.44H150.305ZM178.014 124H186.814V180H178.014V124ZM205.405 124H218.445C222.978 124 226.285 125.067 228.365 127.2C230.445 129.28 231.485 132.507 231.485 136.88V140.32C231.485 146.133 229.565 149.813 225.725 151.36V151.52C227.858 152.16 229.352 153.467 230.205 155.44C231.112 157.413 231.565 160.053 231.565 163.36V173.2C231.565 174.8 231.618 176.107 231.725 177.12C231.832 178.08 232.098 179.04 232.525 180H223.565C223.245 179.093 223.032 178.24 222.925 177.44C222.818 176.64 222.765 175.2 222.765 173.12V162.88C222.765 160.32 222.338 158.533 221.485 157.52C220.685 156.507 219.272 156 217.245 156H214.205V180H205.405V124ZM217.405 148C219.165 148 220.472 147.547 221.325 146.64C222.232 145.733 222.685 144.213 222.685 142.08V137.76C222.685 135.733 222.312 134.267 221.565 133.36C220.872 132.453 219.752 132 218.205 132H214.205V148H217.405ZM256.501 156.16L245.861 124H255.221L261.221 144.56H261.381L267.381 124H275.941L265.301 156.16V180H256.501V156.16Z" fill="#8D2C2C"/>
</svg>
