<svg width="243" height="204" viewBox="0 0 243 204" fill="none" xmlns="http://www.w3.org/2000/svg">
<path fill-rule="evenodd" clip-rule="evenodd" d="M0 55C0 24.6243 24.6243 0 55 0H188C218.376 0 243 24.6243 243 55V149C243 179.376 218.376 204 188 204H55C24.6243 204 0 179.376 0 149V55ZM23.0379 96.8394C22.2579 88.0284 22.7979 79.48 23.5609 75.5228C24.9736 68.1965 29.3376 63.7709 30.6209 62.4693C30.7529 62.3355 30.8523 62.2346 30.9126 62.1671C31.0975 61.96 31.3117 61.8263 31.3857 61.7802L31.3871 61.7793C31.5012 61.7081 31.6266 61.6394 31.7494 61.5759C31.9978 61.4475 32.3127 61.3008 32.6721 61.1433C33.3955 60.8264 34.3668 60.4363 35.4919 60.0182C37.7416 59.182 40.6613 58.2131 43.5281 57.4763C46.3529 56.7505 49.2829 56.2076 51.4826 56.3213C52.5593 56.3769 53.7158 56.5989 54.5671 57.2702C55.5579 58.0516 55.8767 59.2226 55.6195 60.492C55.2058 62.5337 53.7126 64.7054 52.0313 66.8742C51.277 67.8473 50.4918 68.8113 49.6769 69.8118L49.6766 69.8121L49.6761 69.8128C48.5303 71.2195 47.326 72.6982 46.0664 74.3749C41.8858 79.9404 37.9885 86.5981 37.7979 94.7079C37.7007 98.8432 38.4737 101.359 39.5721 102.794C40.6148 104.157 42.0914 104.73 43.9736 104.654C45.9153 104.576 48.2358 103.799 50.6791 102.466C53.1045 101.144 55.5525 99.3276 57.7233 97.2984C60.2531 94.9335 62.876 94.0859 65.3702 94.6006C67.7624 95.0942 69.7004 96.7769 71.1373 98.7393C72.5902 100.724 73.6553 103.158 74.2479 105.48C74.8299 107.76 75.0094 110.143 74.4639 111.97C74.2234 112.776 73.7023 113.511 73.1069 114.151C72.4972 114.808 71.7219 115.458 70.8386 116.089C69.0709 117.353 66.7482 118.627 64.1286 119.79C59.2832 121.941 53.2569 123.782 47.5372 124.448L47.4937 125.443L47.2227 131.636L59.0359 132.344L60.3922 132.425L60.3982 133.776L60.4047 135.229L60.4116 136.788L58.8415 136.783L44.3454 136.739L31.2309 136.699L29.7892 136.695L29.7828 135.264L29.7764 133.811L29.7698 132.337L31.2556 132.259L42.8811 131.651L42.8502 124.692C38.093 124.644 33.6066 123.524 30.7747 120.392C28.3172 117.673 26.5875 113.947 25.3739 109.875C24.1557 105.789 23.429 101.257 23.0379 96.8394ZM28.264 108.936C29.4145 112.795 30.9859 116.073 33.0474 118.353C35.3072 120.852 39.3354 121.86 44.3496 121.686L44.6268 121.676L44.6275 121.676C45.1151 121.66 45.5634 121.645 46.0182 121.607C51.7221 121.132 57.9949 119.282 62.9808 117.069C65.4714 115.963 67.5926 114.788 69.136 113.685C69.9083 113.133 70.5054 112.621 70.9265 112.168C71.3619 111.699 71.5301 111.378 71.579 111.214C71.8993 110.142 71.8529 108.368 71.3272 106.309C70.8121 104.291 69.888 102.201 68.6798 100.551C67.4556 98.8793 66.0607 97.8169 64.6584 97.5276C63.3581 97.2592 61.7248 97.5907 59.7466 99.4398C57.4094 101.625 54.7477 103.607 52.0569 105.074C49.384 106.532 46.5818 107.536 43.9895 107.64C41.3376 107.747 38.8689 106.901 37.1503 104.654C35.4872 102.48 34.6828 99.1937 34.7874 94.7434C35.0003 85.6821 39.3633 78.3832 43.6748 72.6435C44.9256 70.9784 46.255 69.3429 47.4625 67.8573C48.273 66.8601 49.0286 65.9304 49.6687 65.1048C51.3962 62.8763 52.4166 61.2433 52.668 60.0025C52.7131 59.7802 52.6874 59.6903 52.6839 59.6794L52.6823 59.6747C52.6812 59.6721 52.6805 59.6712 52.6798 59.6702C52.6783 59.6681 52.6693 59.6558 52.6435 59.6354C52.5042 59.5255 52.0983 59.3513 51.2207 59.3059C49.512 59.2176 46.9661 59.6536 44.1861 60.368C41.4481 61.0716 38.6342 62.0045 36.46 62.8126C35.3732 63.2165 34.46 63.5842 33.8062 63.8706C33.477 64.0148 33.2302 64.1313 33.066 64.2161C33.0395 64.2299 33.017 64.2418 32.9981 64.252C32.9329 64.3203 32.8567 64.3983 32.7711 64.4862L32.7699 64.4874L32.768 64.4893C31.4242 65.8673 27.7404 69.6447 26.5179 75.9843C25.8193 79.6075 25.276 87.87 26.0378 96.4742C26.4176 100.764 27.118 105.091 28.264 108.936ZM32.9244 64.2939L32.9295 64.2908C32.9081 64.3057 32.9035 64.307 32.9244 64.2939ZM88.7887 77.3622C88.4073 77.3035 87.762 77.2742 86.8527 77.2742C83.89 77.2742 81.6607 77.4942 80.1647 77.9342L79.9887 80.2222C80.9567 80.4862 82.2473 80.6622 83.8607 80.7502L84.3887 107.37C83.098 107.605 81.778 107.957 80.4287 108.426L80.5607 109.966H90.6807C91.1793 109.028 91.4287 108.148 91.4287 107.326L87.7327 106.974L87.9967 91.9262C89.8153 90.9875 91.722 90.5182 93.7167 90.5182C94.6847 90.5182 95.462 90.6502 96.0487 90.9142C96.6353 91.1782 97.0753 91.6329 97.3687 92.2782C97.662 92.9235 97.8673 93.6862 97.9847 94.5662C98.1313 95.4169 98.2927 99.6849 98.4687 107.37C97.178 107.605 95.858 107.957 94.5087 108.426L94.6407 109.966H104.761C105.259 109.028 105.509 108.148 105.509 107.326L101.813 106.974C102.047 100.169 102.165 96.3555 102.165 95.5342C102.165 92.6889 101.534 90.5769 100.273 89.1982C99.0113 87.7902 96.9727 87.0862 94.1567 87.0862C93.834 87.0862 93.042 87.3355 91.7807 87.8342C90.5487 88.3329 89.302 88.9195 88.0407 89.5942C88.0407 88.4795 88.07 86.9102 88.1287 84.8862C88.1873 82.8622 88.2167 81.5275 88.2167 80.8822C88.2753 80.7355 88.378 80.2515 88.5247 79.4302C88.7007 78.5795 88.7887 77.8902 88.7887 77.3622ZM136.757 106.93L136.977 95.5782C136.977 92.5569 136.361 90.3862 135.129 89.0662C133.897 87.7462 131.785 87.0862 128.793 87.0862C128.236 87.0862 126.96 87.3942 124.965 88.0102C122.97 88.5969 121.694 89.0369 121.137 89.3302C121.166 91.5595 121.416 93.3049 121.885 94.5662L123.689 94.6982C124.041 94.6982 124.29 94.6835 124.437 94.6542L125.493 90.2542C126.373 89.9022 127.194 89.7262 127.957 89.7262C129.776 89.7262 131.037 90.1809 131.741 91.0902C132.445 91.9702 132.826 93.4222 132.885 95.4462L132.929 96.9422C132.9 96.9422 131.242 96.9862 127.957 97.0742C122.325 97.2209 119.509 99.5969 119.509 104.202C119.509 106.197 120.14 107.752 121.401 108.866C122.662 109.981 124.334 110.538 126.417 110.538C127.766 110.538 130.113 109.438 133.457 107.238C133.516 108.206 133.809 109.218 134.337 110.274C135.51 110.274 136.698 110.142 137.901 109.878C139.133 109.585 139.984 109.321 140.453 109.086L140.541 107.546C139.28 107.224 138.018 107.018 136.757 106.93ZM133.281 104.686C130.201 106.593 128.236 107.546 127.385 107.546C124.833 107.546 123.557 106.3 123.557 103.806C123.557 102.457 123.968 101.474 124.789 100.858C125.61 100.213 126.696 99.8169 128.045 99.6702C129.394 99.5235 131.066 99.3622 133.061 99.1862L133.281 104.686ZM160.124 83.6982C160.857 83.6982 161.605 83.6102 162.368 83.4342C162.426 82.7302 162.456 82.0262 162.456 81.3222C162.456 80.5889 162.368 79.8409 162.192 79.0782C161.37 79.0195 160.593 78.9902 159.86 78.9902C159.156 78.9902 158.481 79.0635 157.836 79.2102C157.777 79.6209 157.748 80.2515 157.748 81.1022C157.748 81.9235 157.836 82.7449 158.012 83.5662C158.716 83.6542 159.42 83.6982 160.124 83.6982ZM160.168 87.3942C158.789 87.3942 156.853 87.6142 154.36 88.0542L154.184 90.3422C155.064 90.6942 156.354 90.8702 158.056 90.8702C158.173 94.5369 158.32 100.037 158.496 107.37C157.205 107.605 155.885 107.957 154.536 108.426L154.668 109.966H164.788C165.286 109.028 165.536 108.148 165.536 107.326L161.84 106.974L162.236 91.0462C162.265 91.0755 162.368 90.6649 162.544 89.8142C162.72 88.9635 162.808 88.1862 162.808 87.4822C162.426 87.4235 161.546 87.3942 160.168 87.3942ZM191.963 90.5622C192.461 90.5622 192.784 90.6355 192.931 90.7822L193.811 95.5782C194.016 95.6075 194.383 95.6222 194.911 95.6222C195.468 95.6222 195.952 95.5635 196.363 95.4462C196.92 93.5982 197.199 91.2075 197.199 88.2742C196.788 87.9809 196.157 87.7169 195.307 87.4822C194.456 87.2182 193.708 87.0862 193.063 87.0862C192.417 87.0862 190.408 88.1129 187.035 90.1662C186.917 89.0222 186.624 88.0835 186.155 87.3502C183.104 87.3502 180.801 87.5702 179.247 88.0102L179.071 90.2982C180.039 90.5622 181.329 90.7382 182.943 90.8262C183.06 94.4049 183.207 99.9195 183.383 107.37C182.092 107.605 180.772 107.957 179.423 108.426L179.555 109.966H189.675C190.173 109.028 190.423 108.148 190.423 107.326L186.727 106.974C186.785 103.718 186.903 98.8342 187.079 92.3222C187.871 91.8529 188.751 91.4422 189.719 91.0902C190.716 90.7382 191.464 90.5622 191.963 90.5622ZM218.46 114.938C217.404 117.08 216.319 118.15 215.204 118.15C214.794 118.15 214.456 118.106 214.192 118.018L212.696 113.53C211.23 113.53 210.379 113.574 210.144 113.662C210.086 113.985 209.954 115.818 209.748 119.162L210.54 119.558C212.124 120.262 213.826 120.614 215.644 120.614C216.671 120.614 217.595 120.35 218.416 119.822C219.267 119.324 220.118 118.312 220.968 116.786C221.819 115.261 222.67 113.281 223.52 110.846C224.4 108.412 225.588 104.98 227.084 100.55C228.61 96.1209 229.754 92.7915 230.516 90.5622C231.719 90.5035 232.922 90.4009 234.124 90.2542C234.124 89.4329 233.875 88.5529 233.376 87.6142H223.476L223.344 89.1542L227.04 90.1222L221.76 106.006H221.32L220.308 102.134L216.48 90.1222C217.624 89.8875 218.666 89.5649 219.604 89.1542L219.472 87.6142H209.352C208.854 88.5529 208.604 89.4329 208.604 90.2542L212.3 90.6062L219.252 109.966H220.308C220.162 111.14 219.546 112.797 218.46 114.938Z" fill="#731913"/>
</svg>
